Patient4_TMGait_0pt6_02_right_41_EMG.mot
version=1
nRows=33
nColumns=33
inDegrees=no
endheader
time	1LAddLong	2LGlutMax	3LGlutMed	4LIliopsoas	5LSemiMemb	6LBicFemLong	7LRecFem	8LVastMed	9LVastLat	10LGasMed	11LTibAnt	12lTibPost	13LPeroneusLong	14LSol	15LExtDigLong	16LFlexDigLong	17RAddLong	18RGlutMax	19RGlutMed	20RIliopsoas	21RSemiMemb	22RBicFemLong	23RRecFem	24RVastMed	25RVastLat	26RGasMed	27RTibAnt	28RTibPost	29RPeroneusLong	30RSol	31RExtDigLong	32RFlexDigLong
50.77	0.020752	-0.018463	0.092926	0.002899	0.0383	-0.019379	0.067291	0.019531	0.32074	0	0.027161	0.017548	0.019073	-0.084076	0.01236	-0.002594	-0.039673	-0.062256	-0.072784	0.074615	-0.076599	0.021515	0.015411	-0.088959	-0.014343	-0.029449	0.45258	-0.003967	0.032501	0.072479	-0.005798	0.029755
50.771	0.023651	-0.034943	0.03479	0.003357	0.022583	-0.016479	-0.007477	0.01709	0.29205	0.000458	-0.010376	-0.02243	-0.018768	-0.0914	0.003357	-0.004883	-0.041351	-0.073242	-0.099335	0.037384	-0.070496	0.026703	-0.001373	-0.064697	-0.019379	-0.02533	-0.0177	-0.001373	-0.17914	0.12131	-0.00061	0.039368
50.772	0.020905	-0.027313	0.006104	0.027771	0.014191	-0.019684	-0.048218	0.015717	0.24353	-0.034485	0.04425	-0.002747	-0.003204	-0.24231	-0.002289	-0.00412	-0.028229	-0.081787	-0.11093	0.001373	-0.077667	0.078583	0.042877	-0.062103	-0.001831	-0.018158	-0.3746	-0.000763	-0.32105	0.065613	-0.002441	0.037384
50.773	0.025177	-0.053253	-0.010681	0.007629	0.014801	-0.029907	-0.036316	-0.019226	0.058594	-0.035706	0.037689	0.058594	-0.003662	-0.24506	0.001526	-0.011749	-0.00885	-0.063782	-0.12161	-0.012054	-0.089874	0.045013	0.041046	-0.09491	-0.008698	-0.014496	-0.53406	-0.001373	-0.036011	0.095978	-0.006714	0.044403
50.774	0.018158	-0.021667	0.041351	-0.002441	0.011444	0.000916	-0.006714	-0.042419	-0.090332	-0.038452	-0.000153	0.065002	0.009766	-0.1918	0.00946	-0.007019	-0.007935	-0.019531	-0.087433	-0.062256	-0.056	0.036011	0.020752	-0.075531	-0.008545	-0.000763	-0.38269	-0.005798	0.24826	0.10391	-0.003052	0.05188
50.775	0.005188	0.024261	0.066223	-0.001373	0.003357	-0.020752	0.02594	-0.043945	-0.22522	-0.010834	-0.031738	-0.10925	0.032654	-0.099792	0.00824	-0.023651	0.006104	0.011749	-0.090942	-0.098267	-0.092163	0.02182	0.0354	-0.1091	-0.01297	-0.002899	-0.11154	-0.00061	0.56061	0.017242	-0.002899	0.073242
50.776	0.00473	0.006561	0.02533	0.001984	0.002441	-0.006104	-0.050812	-0.026398	-0.177	-0.001831	-0.034943	-0.005035	0.028992	-0.000153	0.014648	-0.05127	0.037994	-0.006256	-0.1828	-0.11963	-0.23727	0.006561	0.028381	-0.11337	-0.016022	0.004578	0.057983	-0.002594	-0.049744	0.022125	-0.003662	0.086212
50.777	0.000763	-0.025787	0.036774	0.001678	-0.001678	0.006561	-0.025482	0.00412	-0.098572	0.005035	-0.041046	0.016174	-0.005951	0.13565	0.013123	-0.001831	0.063477	-0.031586	-0.17471	-0.14511	-0.38116	0.009003	0.024567	-0.069275	-0.011444	0.010376	0.052795	-0.004425	-0.18814	0.039215	-0.009766	-0.027008
50.778	0.005188	-0.011749	0.061798	-0.019379	-0.028687	0.002441	0.036163	-0.002747	-0.026093	-0.012207	-0.049896	0.016785	-0.038452	0.25116	0.013428	0.008087	0.050049	0.002899	-0.1033	0.028381	-0.40405	0.021362	-0.017242	-0.065308	-0.009918	0.014496	0.017395	-0.002899	-0.19012	0.033569	-0.005798	-0.12695
50.779	0.010986	-0.033264	0.1088	-0.010223	0.006866	-0.007935	0.12024	0.000763	-0.010376	-0.064697	-0.041504	0.023499	0.004578	0.16235	-0.00351	0.016022	0.007019	0.05188	-0.018311	0.28153	0.007477	0.11658	-0.025787	-0.068207	0.000763	0.018463	0.013733	0.000305	-0.11505	0.015564	-0.005188	-0.17288
50.78	0.005341	0.000305	0.051422	0.002441	-0.001526	0.005798	0.22171	-0.009155	-0.063019	-0.081787	0.085297	0.026855	-0.012817	0.091705	0.045166	0.00824	-0.083923	0.063324	0.03891	0.3067	0.37399	0.10269	-0.045166	0.022125	0.016022	0.018311	0.031281	0.000153	-0.028534	0.000305	-0.002747	-0.12817
50.781	0.001678	-0.040131	0.021515	0.030823	-0.000153	-0.014191	0.1741	0.007019	-0.074615	-0.002747	0.15472	0.028229	-0.027924	0.020599	0.019836	0.002899	-0.080566	0.016785	0.10269	0.19012	0.44464	-0.006104	0.019226	0.024261	0.018311	0.018921	0.043182	-0.005951	0.20432	-0.001678	0.006866	-0.14481
50.782	0.006714	-0.063477	0.042114	-0.019989	-0.00412	0.009918	0.081329	-0.002747	-0.065765	-0.016479	0.21484	0.041809	-0.070343	0.033417	-0.036926	0.000763	-0.063477	0.005951	0.14099	-0.059814	0.20371	-0.086365	-0.021667	-0.040283	0.005035	0.016479	0.073395	-0.002136	0.29999	-0.01358	-0.003967	-0.14557
50.783	0.003357	-0.053406	0.060272	-0.027618	0.008392	-0.012512	0.039368	0.005188	0.006409	-0.000153	0.18387	0.042419	-0.019836	0.072327	-0.10742	0.013885	-0.027161	-0.019379	0.27206	-0.11627	-0.005493	-0.08606	0.012665	-0.077972	-0.010223	0.01709	0.071411	-0.000153	0.13046	-0.027618	-0.004578	-0.12878
50.784	0.012665	-0.061798	0.034332	-0.003662	0.007935	0.000458	0.098877	0.003052	0.071869	-0.027161	0.11917	0.048218	0.031738	0.087891	-0.066528	0.000305	-0.014496	-0.01709	0.035248	-0.058289	-0.041809	-0.079041	-0.007935	-0.090332	0.009613	0.015259	0.046692	-0.006866	-0.12894	-0.024261	-0.00473	-0.10391
50.785	0.014343	-0.058136	0.046387	-0.01358	0.010376	-0.005341	0.11902	-0.001678	0.040894	-0.01236	-0.065155	0.067749	0.10407	0.085297	-0.025482	-0.002899	0.006409	-0.036469	-0.21622	-0.029755	0.022583	-0.001373	0.003204	-0.059204	0.00473	0.008087	0.060577	-0.008545	-0.47028	-0.001984	-0.011902	-0.12497
50.786	0.010986	-0.02243	0.068054	0.009918	0.006714	-0.009308	0.14862	0.002289	0.065918	-0.014343	-0.20554	0.06134	0.044708	0.071259	0.084686	-0.005341	0.015411	-0.011749	-0.10712	-0.067596	0.12253	0.16022	-0.042267	-0.029144	0.020447	0.006714	0.089111	-0.006866	-0.63843	-0.011444	-0.004883	-0.10544
50.787	0.012207	-0.035553	0.022278	-0.018768	0.007629	0.00412	0.1149	0.016174	0.069733	-0.020447	-0.25406	0.045013	-0.016022	0.039063	0.21225	0.01236	0.002594	0.033417	-0.20035	-0.05249	0.008698	0.045166	-0.02121	-0.086212	0.007477	0.003815	0.086365	-0.00473	-0.24811	-0.033722	-0.003662	-0.083618
50.788	0.007782	-0.021362	-0.023193	0.000763	0.015259	-0.018158	0.12924	0.00061	0.056458	-0.019989	-0.21332	0.042572	-0.006104	0.006561	-0.0177	-0.50369	0.032806	-0.014191	-0.090942	-0.026855	-0.057678	-0.007935	0.013885	-0.11429	0.016632	0.003967	0.066528	-0.008545	0.29526	-0.03418	-0.003662	-0.068207
50.789	0.015259	-0.014801	-0.055847	-0.009155	0.013123	-0.023041	0.13962	0.004272	0.031128	-0.023804	-0.056152	0.035858	-0.028687	0.013733	-0.095673	-0.010071	0.037384	0.016022	-0.085297	-0.003052	-0.032654	-0.022583	0.048676	-0.13962	0.010986	-0.001373	0.08606	-0.003357	0.17395	-0.034027	-0.00824	-0.074921
50.79	0.007019	-0.002136	0.024872	-0.003967	0.012665	-0.016174	0.15228	0.004425	0.018921	-0.03479	-0.019684	0.034637	-0.010223	-0.002136	-0.034943	0.85846	0.019226	0.025177	-0.19669	0.051575	0.092926	-0.04425	0.004425	-0.084229	0.021973	0.000153	0.15228	-0.008087	-0.098572	-0.050201	-0.005646	-0.062866
50.791	0	0.008392	-0.020905	0.001221	0.016022	-0.015869	0.16769	-0.00473	0.011902	0.000916	-0.11078	0.033112	-0.005188	0.049286	-0.080109	-0.45105	-0.022125	0.019684	-0.18097	0.083618	0.27374	0.028381	-0.021515	-0.06485	0.009613	-0.002899	0.19806	-0.005951	-0.062256	-0.0354	-0.003204	-0.077362
50.792	0.005951	-0.015259	0.024719	0.001831	0.011292	-0.025177	0.15213	-0.000458	0.004425	0.016174	-0.15732	0.029907	-0.018921	0.052338	-0.024261	-0.020599	-0.010834	0.001068	-0.053711	0.026398	0.001221	0.10376	-0.031738	-0.022125	0.010681	-0.001068	0.17471	-0.002136	0.058136	-0.045929	-0.006714	-0.073853
50.793	0.005341	0.000916	0.036469	0.008392	0.017548	-0.032806	0.16922	0.016632	-0.020447	-0.013733	-0.1091	0.024719	0.002747	0.030212	0.016022	0.14572	0.00824	-0.041199	-0.037842	0.028687	-0.13962	0.17685	0.002899	-0.050812	0.005951	-0.002289	0.089722	-0.003052	-0.14313	-0.056305	-0.002594	-0.049744
50.794	0.010071	0.010223	0.018616	0.001526	0.016022	-0.011749	0.13046	0.010223	0.007935	-0.02594	-0.096283	0.023041	0.062408	-0.009918	0.061646	0.28839	-0.005951	0.001984	-0.15243	0.018921	-0.082855	0.24109	0.015564	-0.060272	0.005646	-0.001984	0.027771	-0.003967	-0.50278	-0.032806	-0.004272	-0.033875
50.795	0.015411	0.042114	-0.043793	0.002441	0.016022	0.007324	0.14008	0.010986	-0.005798	-0.015717	-0.051727	0.009766	0.036011	-0.054169	0.058746	-0.028992	-0.034943	0.001526	-0.14145	0.014648	0.058289	0.10651	-0.013275	-0.012207	0.014343	0.003052	-0.096893	-0.011902	-0.22217	-0.04364	-0.005951	-0.028839
50.796	0.009155	0.02594	-0.02533	-0.021057	0.015564	0.011902	0.14862	0.016785	-0.002136	0.021057	0.13428	0.006409	-0.021362	-0.087891	0.063782	-0.009003	0.012512	0.00412	-0.088501	0.035858	0.14404	0.024109	-0.031738	0.03418	0.040741	0.007782	-0.22171	-0.007629	0.70038	-0.058441	-0.006561	-0.023804
50.797	0.01236	0.021515	0.075226	-0.032806	0.017853	-0.00061	0.079041	0.001221	0.03418	0.024719	0.19348	0.000458	-0.035095	-0.098267	0.007629	0.006866	0.067749	0.011749	-0.070648	-0.033264	0.075531	0.068665	-0.042267	-0.013275	0.025787	0.002441	-0.26596	-0.009003	0.28748	-0.054932	-0.003357	-0.009613
50.798	0.018768	0.027466	0.077362	-0.013733	0.014954	-0.005188	0.009308	-0.001984	0.049438	0.028687	0.027924	0.006866	0.002441	-0.13443	-0.078278	-0.005798	0.070801	0.022736	-0.084381	-0.12436	-0.10941	0.001221	-0.025024	-0.042267	0.045319	-0.002289	-0.17624	-0.006714	0.06134	-0.012817	-0.011292	0.012665
50.799	0.022278	0.012054	0.054779	0.020752	0.021515	-0.030365	-0.076904	-0.040588	0.070343	0.026398	-0.027924	-0.001068	0.01709	-0.13412	0.29862	-0.00885	0.036469	0.015411	-0.22049	-0.19959	-0.23972	-0.13229	-0.026398	-0.07019	0.03006	-0.006561	-0.057678	-0.001831	0.16388	-0.014038	-0.013275	0.030518
50.8	0.019379	0.020599	0.089874	0.020294	0.026703	-0.02594	0.068054	0.022583	0.13046	0.019531	0.030518	-0.00473	0.002136	0.051727	-0.080109	-0.021667	-0.004578	0.029297	-0.27527	-0.14923	-0.24872	-0.11643	-0.058289	-0.042572	0.026398	-0.018768	-0.010529	-0.001373	0.25848	-0.021362	-0.01236	0.051422
50.801	0.016327	0.000305	0.087433	0.01236	0.019226	-0.021515	0.11063	-0.014496	-0.016174	0.007629	0.082245	-0.005188	0.020752	0.13321	0.11063	-0.004425	-0.02533	0.066376	-0.2121	-0.086975	-0.033722	-0.06134	-0.011139	-0.047607	0.031433	-0.013428	0.061188	-0.004425	0.19959	-0.013885	-0.005951	0.064697
50.802	0.019379	-0.012054	0.068817	-0.021057	0.012054	-0.012512	0.055084	-0.01709	-0.094299	0.000153	0.17563	-0.009308	0.011749	0.058899	0.005646	-0.000153	-0.041046	0.026398	0.02655	-0.032654	0.059662	-0.11612	-0.006256	-0.043182	0.031738	-0.012207	0.20111	-0.007172	0.05188	-0.029755	-0.001831	0.070343
